<svg xmlns="http://www.w3.org/2000/svg" viewBox="0 0 256 256" width="48" height="48"><g fill="none" stroke-miterlimit="10" font-family="none" font-weight="none" font-size="none" text-anchor="none" style="mix-blend-mode:normal"><path d="M198.4 254.72H57.6c-31.053 0-56.32-25.267-56.32-56.32V57.6c0-31.053 25.267-56.32 56.32-56.32h140.8c31.053 0 56.32 25.267 56.32 56.32v140.8c0 31.053-25.267 56.32-56.32 56.32z" fill="#e58d1e"/><path d="M211.959 82.155L166.114 128l45.838 45.837c.31-1.154.528-2.344.528-3.597V85.76c0-1.253-.218-2.443-.521-3.605zm-65.036 45.134L202.004 72.2c-1.161-.303-2.351-.521-3.604-.521H57.6c-1.253 0-2.443.218-3.605.52l55.081 55.089c10.44 10.426 27.407 10.426 37.847 0zM128 149.183c-10.138 0-20.226-3.815-28.09-11.299l-45.915 45.915c1.162.303 2.352.52 3.605.52h140.8c1.253 0 2.443-.217 3.604-.52l-45.915-45.915c-7.863 7.484-17.952 11.3-28.09 11.3zM44.04 82.155c-.302 1.162-.52 2.352-.52 3.605v84.48c0 1.253.218 2.443.52 3.604L89.886 128z" fill="#fff"/></g></svg>