<svg xmlns="http://www.w3.org/2000/svg" viewBox="0 0 256 256" width="48" height="48"><g fill="none" stroke-miterlimit="10" font-family="none" font-weight="none" font-size="none" text-anchor="none" style="mix-blend-mode:normal"><path d="M50.56 254.72h154.88c27.216 0 49.28-22.064 49.28-49.28V50.56c0-27.217-22.064-49.28-49.28-49.28H50.56c-27.217 0-49.28 22.063-49.28 49.28v154.88c0 27.216 22.063 49.28 49.28 49.28z" fill="#2ca5ee"/><path d="M208.608 177.569l-32.469-21.48a12.675 12.675 0 00-12.925-.12l-13.925 8.118c-1.866 1.084-3.661 1.288-5.111 1.02-1.845-.337-3.112-1.344-3.196-1.414-7.653-5.611-16.594-13.038-26.126-22.564-9.525-9.525-16.952-18.465-22.563-26.125-.063-.091-1.077-1.359-1.415-3.196-.26-1.45-.063-3.238 1.02-5.111l8.118-13.925a12.659 12.659 0 00-.12-12.926L78.417 47.378c-2.66-4.02-8.103-5.083-12.066-2.337 0 0-10.173 6.962-13.531 9.328-5.379 3.787-7.11 9.546-7.118 17.571-.014 11.293 9.716 46.669 50.695 87.648 40.987 40.987 76.356 50.71 87.648 50.695 8.026-.007 13.785-1.746 17.572-7.117 2.366-3.358 9.328-13.53 9.328-13.53 2.746-3.964 1.69-9.406-2.337-12.067z" fill="#fff"/></g></svg>