<svg xmlns="http://www.w3.org/2000/svg" viewBox="0 0 256 256" width="48" height="48" fill-rule="none"><defs><linearGradient x1="6.718" y1="12.801" x2="35.097" y2="41.18" gradientUnits="userSpaceOnUse" id="color-1"><stop offset="0" stop-color="#dfe9f2"/><stop offset=".391" stop-color="#d6e0e9"/><stop offset="1" stop-color="#bfc8d1"/></linearGradient><linearGradient x1="15.389" y1="10.726" x2="28.863" y2="39.265" gradientUnits="userSpaceOnUse" id="color-2"><stop offset="0" stop-color="#2ecc75"/><stop offset="1" stop-color="#0b964a"/></linearGradient></defs><g fill="none" stroke-miterlimit="10" font-family="none" font-weight="none" font-size="none" text-anchor="none" style="mix-blend-mode:normal"><path d="M37.848 9.86A19.869 19.869 0 0023.709 4C12.693 4 3.727 12.962 3.722 23.979a20.01 20.01 0 002.461 9.622L3.598 43.04a.998.998 0 001.219 1.231l9.687-2.54a20.026 20.026 0 009.197 2.244c11.024 0 19.99-8.963 19.995-19.98A19.856 19.856 0 0037.848 9.86z" fill="url(#color-1)" fill-rule="nonzero" transform="matrix(6.4 0 0 6.4 -23.227 -26.573)"/><path d="M34.871 12.832a15.673 15.673 0 00-11.157-4.626c-8.704 0-15.783 7.076-15.787 15.774a15.738 15.738 0 002.413 8.396l.376.597-1.595 5.821 5.973-1.566.577.342a15.75 15.75 0 008.032 2.199h.006c8.698 0 15.777-7.077 15.78-15.776a15.68 15.68 0 00-4.618-11.161z" fill="url(#color-2)" fill-rule="nonzero" transform="matrix(6.4 0 0 6.4 -23.227 -26.573)"/><path d="M161.688 190.253c-6.368 0-15.066-1.626-32.557-8.519-19.584-7.73-38.823-24.512-54.17-47.257l-.493-.724c-4.108-5.484-13.644-19.884-13.644-35.2 0-16.511 8.243-25.299 11.763-29.055l.544-.583c4.857-5.318 10.579-5.888 12.813-5.888 2.361.026 4.364 0 6.099.077 4.185.166 8.953 1.376 12.39 9.018 1.6 3.57 4.327 10.272 6.458 15.526 1.363 3.373 2.47 6.112 2.81 6.842 1.881 3.75 1.97 7.468.23 10.97l-.416.85c-.82 1.677-1.67 3.412-3.482 5.524l-1.504 1.804c-1.037 1.261-2.08 2.516-3.008 3.488 2.49 4.103 7.719 11.879 14.919 18.304 8.921 7.943 16.563 11.264 20.665 13.05.813.352 1.491.653 2.029.909 2.592-3.008 6.86-8.135 8.333-10.33 4.928-7.398 12.013-4.832 14.336-3.98 3.641 1.318 21.267 10.086 21.44 10.169l1.632.8c2.681 1.3 5.203 2.521 6.797 5.171 2.528 4.23 1.126 13.267-1.236 19.872-3.417 9.62-18.099 17.952-25.945 18.656l-1.447.154c-1.696.198-3.417.352-5.356.352zM86.955 75.827c-.896 0-2.464-.371-4.39 1.728l-.647.698c-2.9 3.09-8.3 8.85-8.3 20.3 0 11.796 8.486 24.045 11.084 27.52.173.23.454.647.864 1.242 13.92 20.627 31.06 35.725 48.262 42.509 21.658 8.544 27.22 7.897 31.719 7.366l1.779-.192c3.898-.352 13.58-6.086 15.046-10.201 1.338-3.744 1.767-6.957 1.837-8.794-.281-.134-.589-.275-.915-.429l-1.811-.89c-4.077-2.047-17.786-8.742-20.039-9.567-2.828 3.89-8.076 10.016-9.465 11.61-2.605 2.988-7.213 5.817-14.266 2.265-.422-.211-.998-.455-1.715-.768-4.422-1.927-13.632-5.927-24.083-15.232-9.402-8.39-15.834-18.586-18.163-22.586-2.848-4.87-2.061-9.568 2.342-13.952.768-.768 1.645-1.862 2.54-2.944l1.678-2.01c.755-.876 1.03-1.446 1.708-2.822l.224-.454c-.588-1.306-1.779-4.218-3.212-7.763-2.068-5.101-4.71-11.616-6.266-15.085-.416-.922-.73-1.376-.883-1.568.032.096-.186.102-.371.09-1.421-.07-2.976-.07-4.557-.07zm97.222 80.736zm-81.696-56.825z" fill="#000" fill-rule="nonzero" opacity=".05"/><path d="M161.662 187.085c-5.414 0-13.792-1.408-31.354-8.333-18.988-7.488-37.702-23.853-52.69-46.067l-.558-.82c-3.942-5.26-13.036-18.956-13.036-33.318 0-15.245 7.635-23.385 10.899-26.867l.57-.614c4-4.372 8.646-4.839 10.457-4.839 2.413.02 4.269 0 5.958.077 3.15.128 6.765.794 9.613 7.13 1.594 3.545 4.295 10.201 6.407 15.417 1.44 3.552 2.592 6.413 2.892 7.02.525 1.057 2.164 4.315.25 8.16l-.429.871c-.8 1.632-1.491 3.047-3.04 4.852l-1.549 1.85c-1.107 1.343-2.214 2.68-3.174 3.64-1.382 1.377-1.382 1.377-.832 2.318 2.1 3.603 7.885 12.787 16.262 20.255 9.3 8.288 17.255 11.738 21.524 13.594.921.397 1.657.723 2.201.998 1.875.935 2.067.743 2.733-.012 1.843-2.1 7.475-8.73 9.363-11.565 3.546-5.312 8.122-3.648 10.586-2.759 3.238 1.178 19.45 9.197 21.094 10.023l1.677.82c2.432 1.177 4.352 2.105 5.453 3.929 1.625 2.726.953 10.259-1.504 17.158-3.123 8.774-16.935 15.98-23.22 16.544l-1.529.166c-1.491.18-3.06.372-5.024.372zM86.859 72.627h-.5c-1.17 0-3.807.199-6.156 2.765l-.621.666c-2.976 3.174-9.165 9.779-9.165 22.49 0 12.434 8.199 24.729 11.725 29.44.16.21.41.575.774 1.113 14.279 21.158 31.943 36.672 49.741 43.699 22.432 8.845 28.448 8.134 33.261 7.571l1.709-.186c4.435-.396 15.686-6.483 17.766-12.32 2.131-5.964 2.221-10.944 1.895-12.012.044.038-1.485-.628-2.592-1.165l-1.767-.87c-3.987-2.004-17.958-8.839-20.403-9.729-2.304-.832-2.31-.85-3.072.295-2.234 3.334-8.448 10.605-9.869 12.224-4.109 4.704-8.857 2.297-10.425 1.51-.461-.23-1.095-.499-1.876-.838-4.275-1.863-13.164-5.728-23.232-14.695-9.062-8.076-15.276-17.939-17.53-21.804-3.046-5.21.378-8.621 1.838-10.074.832-.832 1.792-2.003 2.758-3.18l1.632-1.96c1.018-1.19 1.446-2.06 2.15-3.5l.448-.915c.314-.627.372-1.21-.256-2.451-.332-.666-1.568-3.7-3.09-7.47-2.087-5.138-4.743-11.705-6.318-15.193-1.465-3.257-2.323-3.296-4.044-3.36-1.479-.05-3.117-.05-4.781-.05z" fill="#000" fill-rule="nonzero" opacity=".07"/><path d="M98.596 74.746c-2.272-5.056-4.665-5.159-6.835-5.248-1.773-.077-3.795-.07-5.817-.07-2.023 0-5.312.76-8.096 3.8s-10.63 10.382-10.63 25.32c0 14.937 10.88 29.375 12.396 31.397 1.517 2.023 21.005 33.658 51.866 45.83 25.644 10.113 30.867 8.103 36.435 7.598 5.568-.506 17.965-7.341 20.493-14.432 2.528-7.092 2.528-13.165 1.772-14.432-.761-1.268-2.784-2.023-5.817-3.546-3.034-1.523-17.965-8.864-20.749-9.875-2.784-1.011-4.806-1.517-6.835 1.523-2.023 3.034-7.84 9.875-9.613 11.898-1.773 2.028-3.546 2.284-6.58.761-3.033-1.523-12.812-4.723-24.415-15.065-9.024-8.045-15.117-17.984-16.89-21.024-1.773-3.034-.192-4.679 1.331-6.195 1.364-1.364 3.034-3.546 4.557-5.319 1.517-1.773 2.023-3.04 3.034-5.062 1.011-2.03.505-3.802-.256-5.319-.749-1.523-6.65-16.537-9.35-22.54z" fill="#fff" fill-rule="evenodd"/></g></svg>